<?xml version="1.0" encoding="iso-8859-1"?>
<!-- Generator: Adobe Illustrator 19.0.0, SVG Export Plug-In . SVG Version: 6.00 Build 0)  -->
<svg version="1.1" id="Layer_1" xmlns="http://www.w3.org/2000/svg" xmlns:xlink="http://www.w3.org/1999/xlink" x="0px" y="0px"
	 viewBox="0 0 503.607 503.607" style="enable-background:new 0 0 503.607 503.607;" xml:space="preserve">
<g transform="translate(1 1)">
	<path style="fill:#CCCCCC;" d="M494.213,250.803c0,134.295-109.115,243.41-243.41,243.41S7.393,385.098,7.393,250.803
		S116.508,7.393,250.803,7.393S494.213,116.508,494.213,250.803"/>
	<path style="fill:#E2E3E5;" d="M469.033,250.803c0,134.295-103.239,243.41-230.82,243.41S7.393,385.098,7.393,250.803
		S110.633,7.393,238.213,7.393S469.033,116.508,469.033,250.803"/>
	<path style="fill:#FFFFFF;" d="M250.803,494.213c2.518,0,4.197,0,6.715,0C132.456,490.856,32.574,383.42,32.574,250.803
		S132.456,10.751,257.518,7.393c-2.518,0-4.197,0-6.715,0c-134.295,0-243.41,109.115-243.41,243.41S116.508,494.213,250.803,494.213
		"/>
	<path style="fill:#F0F0F0;" d="M225.623,249.964c0,14.269,10.911,25.18,25.18,25.18c14.269,0,25.18-10.911,25.18-25.18
		s-10.911-25.18-25.18-25.18C236.534,224.784,225.623,235.695,225.623,249.964"/>
	<g>
		<path style="fill:#B6B6B6;" d="M250.803,502.607C112.311,502.607-1,389.295-1,250.803S112.311-1,250.803-1
			s251.803,113.311,251.803,251.803S389.295,502.607,250.803,502.607z M250.803,15.787c-129.259,0-235.016,105.757-235.016,235.016
			S121.544,485.82,250.803,485.82S485.82,380.062,485.82,250.803S380.062,15.787,250.803,15.787z"/>
		<path style="fill:#B6B6B6;" d="M225.623,258.357h-67.148c-5.036,0-8.393-3.357-8.393-8.393c0-5.036,3.357-8.393,8.393-8.393
			h67.148c5.036,0,8.393,3.357,8.393,8.393C234.016,255,230.659,258.357,225.623,258.357z"/>
		<path style="fill:#B6B6B6;" d="M250.803,233.177c-5.036,0-8.393-3.357-8.393-8.393v-92.328c0-5.036,3.357-8.393,8.393-8.393
			s8.393,3.357,8.393,8.393v92.328C259.197,229.82,255.839,233.177,250.803,233.177z"/>
		<path style="fill:#B6B6B6;" d="M250.803,283.538c-18.466,0-33.574-15.108-33.574-33.574s15.108-33.574,33.574-33.574
			s33.574,15.108,33.574,33.574S269.269,283.538,250.803,283.538z M250.803,233.177c-9.233,0-16.787,7.554-16.787,16.787
			s7.554,16.787,16.787,16.787c9.233,0,16.787-7.554,16.787-16.787S260.036,233.177,250.803,233.177z"/>
		<path style="fill:#B6B6B6;" d="M250.803,82.095c-5.036,0-8.393-3.357-8.393-8.393v-8.393c0-5.036,3.357-8.393,8.393-8.393
			s8.393,3.357,8.393,8.393v8.393C259.197,78.738,255.839,82.095,250.803,82.095z"/>
		<path style="fill:#B6B6B6;" d="M250.803,443.013c-5.036,0-8.393-3.357-8.393-8.393v-8.393c0-5.036,3.357-8.393,8.393-8.393
			s8.393,3.357,8.393,8.393v8.393C259.197,439.656,255.839,443.013,250.803,443.013z"/>
		<path style="fill:#B6B6B6;" d="M435.459,258.357h-8.393c-5.036,0-8.393-3.357-8.393-8.393c0-5.036,3.357-8.393,8.393-8.393h8.393
			c5.036,0,8.393,3.357,8.393,8.393C443.852,255,440.495,258.357,435.459,258.357z"/>
		<path style="fill:#B6B6B6;" d="M74.541,258.357h-8.393c-5.036,0-8.393-3.357-8.393-8.393c0-5.036,3.357-8.393,8.393-8.393h8.393
			c5.036,0,8.393,3.357,8.393,8.393C82.934,255,79.577,258.357,74.541,258.357z"/>
		<path style="fill:#B6B6B6;" d="M375.026,134.134c-2.518,0-4.197-0.839-5.875-2.518c-3.357-3.357-3.357-8.393,0-11.751l5.875-5.875
			c3.357-3.357,8.393-3.357,11.751,0c3.357,3.357,3.357,8.393,0,11.751l-5.875,5.875
			C380.062,133.295,377.544,134.134,375.026,134.134z"/>
		<path style="fill:#B6B6B6;" d="M119.866,389.295c-2.518,0-4.197-0.839-5.875-2.518c-3.357-3.357-3.357-8.393,0-11.751l5.875-5.875
			c3.357-3.357,8.393-3.357,11.751,0s3.357,8.393,0,11.751l-5.875,5.875C124.902,388.456,122.384,389.295,119.866,389.295z"/>
		<path style="fill:#B6B6B6;" d="M381.741,389.295c-2.518,0-4.197-0.839-5.875-2.518l-5.875-5.875
			c-3.357-3.357-3.357-8.393,0-11.751s8.393-3.357,11.751,0l5.875,5.875c3.357,3.357,3.357,8.393,0,11.751
			C385.938,388.456,383.42,389.295,381.741,389.295z"/>
		<path style="fill:#B6B6B6;" d="M126.58,134.134c-2.518,0-4.197-0.839-5.875-2.518l-5.875-5.875c-3.357-3.357-3.357-8.393,0-11.751
			c3.357-3.357,8.393-3.357,11.751,0l5.875,5.875c3.357,3.357,3.357,8.393,0,11.751C130.777,133.295,128.259,134.134,126.58,134.134
			z"/>
	</g>
</g>
<g>
</g>
<g>
</g>
<g>
</g>
<g>
</g>
<g>
</g>
<g>
</g>
<g>
</g>
<g>
</g>
<g>
</g>
<g>
</g>
<g>
</g>
<g>
</g>
<g>
</g>
<g>
</g>
<g>
</g>
</svg>
