<?xml version="1.0" encoding="iso-8859-1"?>
<!-- Generator: Adobe Illustrator 19.0.0, SVG Export Plug-In . SVG Version: 6.00 Build 0)  -->
<svg version="1.1" id="Layer_1" xmlns="http://www.w3.org/2000/svg" xmlns:xlink="http://www.w3.org/1999/xlink" x="0px" y="0px"
	 viewBox="0 0 512 512" style="enable-background:new 0 0 512 512;" xml:space="preserve">
<path style="fill:#444242;" d="M18.425,493.575L18.425,493.575c25.472,25.472,67.091,24.393,91.208-2.364l183.177-225.725
	l-46.296-46.296L20.789,402.366C-5.968,426.484-7.047,468.103,18.425,493.575z"/>
<g>
	<path style="fill:#3A3839;" d="M18.423,493.573L18.423,493.573c22.987-22.987,251.238-251.236,251.238-251.236l23.147,23.147
		L109.631,491.208C85.514,517.966,43.895,519.045,18.423,493.573z"/>
	<polygon style="fill:#3A3839;" points="230.141,342.712 169.288,281.859 219.649,240.991 271.009,292.351 	"/>
</g>
<polygon style="fill:#262626;" points="230.141,342.712 199.712,312.283 245.329,266.671 271.009,292.351 "/>
<circle style="fill:#BCE8F7;" cx="345.299" cy="166.701" r="141.379"/>
<path style="fill:#AFD9E8;" d="M445.265,66.735c55.21,55.21,55.21,144.725,0,199.936s-144.725,55.21-199.936,0
	C290.941,221.059,400.986,111.014,445.265,66.735z"/>
<path style="fill:#444242;" d="M227.42,48.826c-65.102,65.102-65.102,170.652,0,235.754s170.652,65.102,235.754,0
	s65.102-170.652,0-235.754C398.072-16.275,292.522-16.275,227.42,48.826z M254.87,76.276c49.941-49.941,130.912-49.941,180.854,0
	s49.941,130.912,0,180.854s-130.912,49.941-180.854,0S204.929,126.217,254.87,76.276z"/>
<path style="fill:#FFFFFF;" d="M304.235,115.339c19.178-19.177,50.381-19.177,69.559,0l23.611-23.611
	c-32.196-32.198-84.585-32.198-116.781,0L304.235,115.339z"/>
<path style="fill:#3A3839;" d="M435.724,257.13c49.941-49.941,49.941-130.912,0-180.853l27.45-27.45
	c65.102,65.102,65.102,170.652,0,235.754s-170.652,65.102-235.754,0l27.45-27.45C304.811,307.071,385.783,307.071,435.724,257.13z"
	/>
<g>
</g>
<g>
</g>
<g>
</g>
<g>
</g>
<g>
</g>
<g>
</g>
<g>
</g>
<g>
</g>
<g>
</g>
<g>
</g>
<g>
</g>
<g>
</g>
<g>
</g>
<g>
</g>
<g>
</g>
</svg>
